HIERARCHY
ROOT Hips
{
	OFFSET 0.000000 0.000000 0.000000 
	CHANNELS 6 Xposition Yposition Zposition Zrotation Yrotation Xrotation
	JOINT LeftUpLeg
	{
		OFFSET 1.363060 -1.794630 0.839290 
		CHANNELS 3 Zrotation Yrotation Xrotation
		JOINT LeftLeg
		{
			OFFSET 2.448110 -6.726130 0.000000 
			CHANNELS 3 Zrotation Yrotation Xrotation
			JOINT LeftFoot
			{
				OFFSET 2.562200 -7.039590 0.000000 
				CHANNELS 3 Zrotation Yrotation Xrotation
				JOINT LeftToeBase
				{
					OFFSET 0.157640 -0.433110 2.322550 
					CHANNELS 3 Zrotation Yrotation Xrotation
					End Site
					{
						OFFSET 0.000000 0.000000 0.000000 
					}
				}
			}
		}
	}
	JOINT RightUpLeg
	{
		OFFSET -1.305520 -1.794630 0.839290 
		CHANNELS 3 Zrotation Yrotation Xrotation
		JOINT RightLeg
		{
			OFFSET -2.542530 -6.985550 0.000000 
			CHANNELS 3 Zrotation Yrotation Xrotation
			JOINT RightFoot
			{
				OFFSET -2.568260 -7.056230 0.000000 
				CHANNELS 3 Zrotation Yrotation Xrotation
				JOINT RightToeBase
				{
					OFFSET -0.164730 -0.452590 2.363150 
					CHANNELS 3 Zrotation Yrotation Xrotation
					End Site
					{
						OFFSET 0.000000 0.000000 0.000000 
					}
				}
			}
		}
	}
	JOINT Spine
	{
		OFFSET 0.028270 2.035590 -0.193380 
		CHANNELS 3 Zrotation Yrotation Xrotation
		JOINT Spine1
		{
			OFFSET 0.056720 2.048850 -0.042750 
			CHANNELS 3 Zrotation Yrotation Xrotation
			JOINT Neck1
			{
				OFFSET -0.054170 1.746240 0.172020 
				CHANNELS 3 Zrotation Yrotation Xrotation
				JOINT Head
				{
					OFFSET 0.104070 1.761360 -0.123970 
					CHANNELS 3 Zrotation Yrotation Xrotation
					End Site
					{
						OFFSET 0.000000 0.000000 0.000000 
					}
				}
			}
			JOINT LeftArm
			{
				OFFSET 3.362410 1.200890 -0.311210 
				CHANNELS 3 Zrotation Yrotation Xrotation
				JOINT LeftForeArm
				{
					OFFSET 4.983000 -0.000000 -0.000000 
					CHANNELS 3 Zrotation Yrotation Xrotation
					JOINT LeftHand
					{
						OFFSET 3.483560 -0.000000 -0.000000 
						CHANNELS 3 Zrotation Yrotation Xrotation
						JOINT LeftHandIndex1
						{
							OFFSET 0.715260 -0.000000 -0.000000 
							CHANNELS 3 Zrotation Yrotation Xrotation
							End Site
							{
								OFFSET 0.000000 0.000000 0.000000 
							}
						}
					}
				}
			}
			JOINT RightArm
			{
				OFFSET -3.136600 1.374050 -0.404650 
				CHANNELS 3 Zrotation Yrotation Xrotation
				JOINT RightForeArm
				{
					OFFSET -5.241900 -0.000000 -0.000000 
					CHANNELS 3 Zrotation Yrotation Xrotation
					JOINT RightHand
					{
						OFFSET -3.444170 -0.000000 -0.000000 
						CHANNELS 3 Zrotation Yrotation Xrotation
						JOINT RightHandIndex1
						{
							OFFSET -0.622530 -0.000000 -0.000000 
							CHANNELS 3 Zrotation Yrotation Xrotation
							End Site
							{
								OFFSET 0.000000 0.000000 0.000000 
							}
						}
					}
				}
			}
		}
	}
}
MOTION
Frames: 6
Frame Time: 0.041667
0.246941 18.238320 0.126729 -1.618173 1.502838 16.335130 -13.165473 -22.148553 -19.594662 -0.585991 4.062970 16.599847 -5.074817 19.085295 2.365788 1.157300 -6.830000 -19.212800 17.138645 19.889914 -24.621329 0.457097 -5.361173 19.484407 3.486694 -18.068752 -7.509136 -0.032700 1.166400 -3.206800 14.025731 -1.505449 10.611886 0.013165 0.649475 -9.222139 -10.049564 -0.996551 -10.884833 -3.641300 -0.155000 -4.139000 -79.767133 -4.659441 52.293189 80.653087 -59.263074 -50.435804 2.125270 0.487335 21.701757 -7.125000 0.000000 0.000000 70.611435 3.981577 38.400889 -88.963360 55.940282 -54.587313 -0.884260 1.307454 32.115017 7.125000 0.000000 0.000000 
0.250450 18.237919 0.130940 -1.604001 1.493743 16.307716 -13.179122 -22.206626 -19.536281 -0.583726 4.061841 16.610205 -5.092705 19.138534 2.304589 1.156800 -6.828400 -19.208100 17.175624 19.743688 -24.644214 0.451758 -5.370048 19.508762 3.465924 -17.968679 -7.415365 -0.034600 1.200500 -3.300800 13.903987 -1.502455 10.707478 0.072281 0.659780 -8.910440 -10.200130 -1.178442 -12.254319 -3.692600 -0.197700 -4.661200 -79.793313 -4.901951 52.206122 80.642467 -59.239166 -50.414549 2.105099 0.508630 21.770541 -7.125000 0.000000 0.000000 70.636113 4.232612 38.324730 -89.224206 55.902944 -54.850970 -0.845667 1.301348 32.217030 7.125000 0.000000 0.000000 
0.254560 18.237016 0.133948 -1.631087 1.552330 16.231800 -13.146599 -22.277724 -19.464110 -0.581461 4.058654 16.618095 -5.098784 19.143784 2.257429 1.156300 -6.827100 -19.204100 17.255589 19.604983 -24.590888 0.453870 -5.357860 19.499559 3.449762 -17.886902 -7.414570 -0.027700 1.074800 -2.954500 13.838390 -1.556063 11.046250 0.094185 0.660597 -8.590551 -10.222137 -1.362559 -13.490596 -3.696300 -0.251400 -5.145700 -79.832151 -5.318902 52.127958 80.527917 -59.207861 -50.294384 2.087266 0.526219 21.793407 -7.125000 0.000000 0.000000 70.665326 4.645711 38.220178 -89.503566 55.864484 -55.132549 -0.806154 1.292433 32.364720 7.125000 0.000000 0.000000 
0.257869 18.237116 0.137256 -1.643903 1.514119 16.119980 -13.146328 -22.299152 -19.340722 -0.583509 4.047572 16.608001 -5.124549 19.211032 2.179190 1.143200 -6.789600 -19.093600 17.295760 19.565579 -24.503262 0.449678 -5.349013 19.504753 3.446827 -17.855852 -7.346912 -0.030600 1.128300 -3.102000 13.744749 -1.600660 11.422289 0.144566 0.670261 -8.326975 -10.215135 -1.496559 -14.420851 -3.692800 -0.287600 -5.537700 -79.852893 -5.712194 52.007091 80.509770 -59.189224 -50.258554 2.058431 0.550515 21.836064 -7.125000 0.000000 0.000000 70.716408 5.077870 38.182752 -89.764043 55.831641 -55.399629 -0.761415 1.281760 32.440473 7.125000 0.000000 0.000000 
0.260877 18.237618 0.140364 -1.593980 1.387212 16.004897 -13.234406 -22.230290 -19.220348 -0.583423 4.042816 16.615679 -5.141632 19.259919 2.143407 1.147100 -6.801000 -19.127000 17.251266 19.575874 -24.399852 0.449932 -5.333553 19.489642 3.429070 -17.759203 -7.346002 -0.024600 1.013300 -2.785500 13.531732 -1.595487 11.731832 0.201766 0.694455 -8.169566 -10.213846 -1.595506 -14.943121 -3.691700 -0.314000 -5.798200 -79.810431 -6.004242 51.943310 80.659439 -59.187905 -50.376698 2.034491 0.572171 21.827827 -7.125000 0.000000 0.000000 70.782429 5.468624 38.132402 -90.019129 55.807577 -55.667367 -0.702343 1.276884 32.282089 7.125000 0.000000 0.000000 
0.264787 18.238420 0.144475 -1.496167 1.208808 15.806751 -13.383280 -22.148080 -19.026795 -0.585157 4.028361 16.612048 -5.162861 19.317642 2.101202 1.153400 -6.818800 -19.179600 17.193023 19.551176 -24.242436 0.442685 -5.321055 19.497562 3.417973 -17.672699 -7.251400 -0.027700 1.075000 -2.955200 13.122964 -1.576185 12.342755 0.272113 0.739475 -7.999466 -10.195450 -1.674232 -15.355333 -3.701000 -0.338800 -6.015400 -79.727650 -6.421198 51.979916 80.868248 -59.188809 -50.546102 2.020440 0.589690 21.728992 -7.125000 0.000000 0.000000 70.853612 6.008173 38.070139 -90.320141 55.779162 -55.979408 -0.650385 1.260305 31.937141 7.125000 0.000000 0.000000 
